Coordinates
version=1
nRows=9
nColumns=36
inDegrees=yes

Units are S.I. units (second, meters, Newtons, ...)
If the header above contains a line with 'inDegrees', this indicates whether rotational values are in degrees (yes) or radians (no).

endheader
time	pelvis_tilt	pelvis_list	pelvis_rotation	pelvis_tx	pelvis_ty	pelvis_tz	hip_flexion_r	hip_adduction_r	hip_rotation_r	knee_angle_r	knee_angle_r_beta	ankle_angle_r	subtalar_angle_r	mtp_angle_r	hip_flexion_l	hip_adduction_l	hip_rotation_l	knee_angle_l	knee_angle_l_beta	ankle_angle_l	subtalar_angle_l	mtp_angle_l	lumbar_extension	lumbar_bending	lumbar_rotation	arm_flex_r	arm_add_r	arm_rot_r	elbow_flex_r	pro_sup_r	arm_flex_l	arm_add_l	arm_rot_l	elbow_flex_l	pro_sup_l
      1.46666670	     -0.39277107	     -0.94303300	     11.29211872	      0.03505986	      1.21607881	      0.08939640	      0.06525644	     -1.62441734	      1.02815735	      2.49727223	      0.04358562	      4.93759766	     -7.38438098	     -7.49999974	     -0.70494289	     -0.45348609	     -1.14958436	      1.65286745	      0.02884798	      8.70674327	      2.82704292	     -7.49999974	     -6.13440141	     -0.03128003	     -1.92247178	      2.05494999	     -6.68256510	      6.91637912	     26.63278860	     80.92656489	     -1.17679389	     -7.44043557	      2.56852517	     32.10796394	     75.00338722
      1.48333330	     -0.41915315	     -0.94411273	     11.30694915	      0.03501957	      1.21932627	      0.08948050	      0.01944544	     -1.62083897	      1.01931394	      2.31174283	      0.04034752	      4.78904206	     -7.35895181	     -7.49999983	     -0.63954369	     -0.44421700	     -0.99254774	      1.63696895	      0.02857050	      8.69659564	      2.96769513	     -7.49999983	     -6.07624295	     -0.05648449	     -1.93887381	      2.10396886	     -6.65678288	      7.03730690	     27.29428803	     81.33319645	     -1.16884652	     -7.54179755	      2.83265894	     32.09383217	     74.86239907
      1.50000000	     -0.47640766	     -0.92015773	     11.33943224	      0.03493553	      1.21562163	      0.08952669	      0.05241331	     -1.63538395	      1.08245605	      2.16337319	      0.03775799	      4.80047669	     -7.23576357	     -7.49999984	     -0.57368069	     -0.39108845	     -0.78765213	      1.60494522	      0.02801158	      8.74518246	      2.91399889	     -7.49999984	     -5.97065921	     -0.10480782	     -1.93594893	      2.04439253	     -6.65416245	      7.28147007	     28.03263151	     80.42318826	     -1.31116229	     -7.61870838	      2.94490722	     32.39002331	     74.19712830
      1.51666670	     -0.54119929	     -0.88845504	     11.37357857	      0.02783872	      1.21255517	      0.08631132	      0.34454889	     -1.75554058	      1.04210911	      2.32225257	      0.04053095	      4.87728194	     -7.34129242	     -7.49999984	     -0.37577353	     -0.25567894	     -0.55840360	      1.63769793	      0.02858322	      8.96953666	      2.93984352	     -7.49999984	     -5.99428175	     -0.10607933	     -1.98012122	      2.47636684	     -6.64717643	      7.30641001	     28.35981753	     80.44653890	     -1.09982592	     -7.59297284	      2.97221803	     32.42710327	     74.20568762
      1.53333330	     -0.69153804	     -0.84757424	     11.45309540	      0.02780307	      1.21229952	      0.08602996	      0.75681820	     -1.87041920	      1.17842358	      2.50486386	      0.04371812	      4.90980016	     -7.66320987	     -7.49999985	     -0.08371076	     -0.08851101	     -0.12384672	      1.69534444	      0.02958934	      9.04351039	      2.64402506	     -7.49999985	     -5.91995605	     -0.12238401	     -2.04122892	      2.48788155	     -6.82109138	      7.94448091	     29.49287697	     78.67923736	     -1.04016241	     -7.59165178	      3.34464865	     32.51895330	     72.69230783
      1.55000000	     -0.81979891	     -0.81202542	     11.50349906	      0.02801223	      1.21311281	      0.08640739	      1.07768257	     -1.96273997	      1.23831119	      2.66558547	      0.04652324	      5.01360667	     -7.77774748	     -7.49999985	      0.19003702	      0.04278796	      0.08707059	      1.77043117	      0.03089985	      9.10454838	      2.55974478	     -7.49999985	     -5.87693588	     -0.16532006	     -2.04510253	      2.71489019	     -6.98759666	      8.74635599	     30.10010172	     77.73944448	     -1.05137917	     -7.62700534	      3.72132678	     32.69300101	     71.78788327
      1.56666670	     -0.79869550	     -0.79696424	     11.55053286	      0.03518774	      1.21641043	      0.08975466	      1.07662208	     -1.91562868	      1.26351522	      2.69236164	      0.04699058	      5.03208458	     -7.76472507	     -7.49999985	      0.15717412	      0.02548031	      0.18916276	      1.76877800	      0.03087100	      9.11619586	      2.60921148	     -7.49999985	     -5.85649979	     -0.17362791	     -1.94117056	      2.81057001	     -6.89690982	      8.76215244	     30.18344319	     77.75696102	     -1.15392795	     -7.62507354	      3.72280441	     32.68098011	     71.79615352
      1.58333330	     -0.80613806	     -0.81210553	     11.52707161	      0.02808686	      1.21360745	      0.08646809	      1.18486926	     -1.96795180	      1.29282178	      2.77662713	      0.04846129	      5.11837364	     -7.75214513	     -7.49999985	      0.17131398	      0.06259346	      0.32024999	      1.67216951	      0.02918486	      9.19133550	      2.65633923	     -7.49999985	     -5.79897300	     -0.07153393	     -1.89674030	      3.01218939	     -6.92946719	      8.76596693	     30.39762420	     77.79111269	     -1.24071005	     -7.51175789	      3.73898171	     32.75549012	     71.81576950
      1.60000000	     -0.73724840	     -0.77870322	     11.61142998	      0.03488893	      1.21410914	      0.08984902	      0.90474833	     -1.93959068	      1.36887398	      2.55550708	      0.04460201	      5.21341460	     -7.64453538	     -7.49999986	      0.01132763	      0.04832219	      0.52165112	      1.56323309	      0.02728356	      9.14402116	      2.61015283	     -7.49999986	     -5.95206533	     -0.10156124	     -2.10585679	      2.63267888	     -7.03824907	      9.00461322	     32.03166048	     78.35742153	     -1.95364697	     -7.60451206	      3.30239099	     33.87507434	     72.05695275
